# xmcd CD Database Entry
#
# Track frame offsets:
# 155
# 7090
# 26125
# 48210
# 80611
# 97394
# 112642
# 131965
# 146649
# 160327
# 178110
#
# Disc length: 2611 seconds
#
# Revision: 2
# Processed by: cddbd v1.4PL0 Copyright (c) Steve Scherf et al.
# Submitted via: tcd 2.0b
#
DISCID=980a310b
DTITLE=Thione Diop - Kham Saa Thiossane (Know Your Culture)
DYEAR=1900
DGENRE=
TTITLE0=Drum Call
TTITLE1=Kotaba
TTITLE2=Djan
TTITLE3=Karoninka
TTITLE4=Wango
TTITLE5=Diba
TTITLE6=Mendiani
TTITLE7=Dunun Gbe'
TTITLE8=Timini
TTITLE9=Sunu
TTITLE10=Tiriba
EXTD=
EXTT0=
EXTT1=
EXTT2=
EXTT3=
EXTT4=
EXTT5=
EXTT6=
EXTT7=
EXTT8=
EXTT9=
EXTT10=
PLAYORDER=
